# xmcd
#
# Track frame offsets:
#	150
#	12967
#	27168
#	38933
#	52722
#	64949
#	77743
#	88253
#	104122
#	112634
#	124658
#	137125
#	148340
#	161305
#	172332
#	188314
#
# Disc length: 2681 seconds
#
# Revision: 1
# Processed by: cddbd v1.4b41PL1 Copyright (c) Steve Scherf et al.
# Submitted via: audiograbber 1.80
#
DISCID=d40a7710
DTITLE=Charley Pride - Legendary Charley Pride Disk 3
DYEAR=1900
DGENRE=
TTITLE0=Mountain of Love
TTITLE1=I Can't Believe That You've Stopped Loving Me
TTITLE2=When I Stop Leaving (I'll Be Gone)
TTITLE3=You Win Again
TTITLE4=Night Games
TTITLE5=You Almost Slipped My Mind
TTITLE6=More and More
TTITLE7=Me and Bobby McGee
TTITLE8=Piroque Joe
TTITLE9=I Don't Think She's In Love Anymore
TTITLE10=More To Me
TTITLE11=Missin' You
TTITLE12=I'll Be Leaving Alone
TTITLE13=Wings of a Dove
TTITLE14=The Power of Love
TTITLE15=Crystal Chandeliers
EXTD=
EXTT0=
EXTT1=
EXTT2=
EXTT3=
EXTT4=
EXTT5=
EXTT6=
EXTT7=
EXTT8=
EXTT9=
EXTT10=
EXTT11=
EXTT12=
EXTT13=
EXTT14=
EXTT15=
PLAYORDER=
